<svg xmlns="http://www.w3.org/2000/svg" xmlns:xlink="http://www.w3.org/1999/xlink" width="321" zoomAndPan="magnify" viewBox="0 0 240.75 84.749997" height="113" preserveAspectRatio="xMidYMid meet" version="1.0"><defs><g/><clipPath id="122f9bdd57"><path d="M 0.230469 0 L 240.269531 0 L 240.269531 84.5 L 0.230469 84.5 Z M 0.230469 0 " clip-rule="nonzero"/></clipPath><clipPath id="16bdb91f39"><path d="M 42 54 L 93 54 L 93 55.964844 L 42 55.964844 Z M 42 54 " clip-rule="nonzero"/></clipPath><clipPath id="141674f5ce"><path d="M 41 53.71875 L 43 53.71875 L 43 55.964844 L 41 55.964844 Z M 41 53.71875 " clip-rule="nonzero"/></clipPath><clipPath id="78f24986fb"><path d="M 93 53.71875 L 95 53.71875 L 95 55.964844 L 93 55.964844 Z M 93 53.71875 " clip-rule="nonzero"/></clipPath><clipPath id="c0c75af2e7"><path d="M 41 32.789062 L 43 32.789062 L 43 35.035156 L 41 35.035156 Z M 41 32.789062 " clip-rule="nonzero"/></clipPath><clipPath id="73095ad890"><path d="M 93 32.789062 L 95 32.789062 L 95 35.035156 L 93 35.035156 Z M 93 32.789062 " clip-rule="nonzero"/></clipPath><clipPath id="b9104927be"><path d="M 146 32.789062 L 148 32.789062 L 148 35.035156 L 146 35.035156 Z M 146 32.789062 " clip-rule="nonzero"/></clipPath><clipPath id="55140d5b20"><path d="M 198 32.789062 L 200 32.789062 L 200 35.035156 L 198 35.035156 Z M 198 32.789062 " clip-rule="nonzero"/></clipPath><clipPath id="997c0eb937"><path d="M 147 54 L 198 54 L 198 55.964844 L 147 55.964844 Z M 147 54 " clip-rule="nonzero"/></clipPath><clipPath id="fe159e59a4"><path d="M 146 53.71875 L 148 53.71875 L 148 55.964844 L 146 55.964844 Z M 146 53.71875 " clip-rule="nonzero"/></clipPath><clipPath id="d72edf2610"><path d="M 198 53.71875 L 200 53.71875 L 200 55.964844 L 198 55.964844 Z M 198 53.71875 " clip-rule="nonzero"/></clipPath><clipPath id="c04a38b1ab"><path d="M 107 31 L 134 31 L 134 55.339844 L 107 55.339844 Z M 107 31 " clip-rule="nonzero"/></clipPath></defs><g clip-path="url(#122f9bdd57)"><path fill="#ffffff" d="M 0.230469 0 L 240.519531 0 L 240.519531 92.074219 L 0.230469 92.074219 Z M 0.230469 0 " fill-opacity="1" fill-rule="nonzero"/><path fill="#ffffff" d="M 0.230469 0 L 240.519531 0 L 240.519531 84.589844 L 0.230469 84.589844 Z M 0.230469 0 " fill-opacity="1" fill-rule="nonzero"/><path fill="#f3eee8" d="M 0.230469 0 L 240.519531 0 L 240.519531 84.589844 L 0.230469 84.589844 Z M 0.230469 0 " fill-opacity="1" fill-rule="nonzero"/></g><g clip-path="url(#16bdb91f39)"><path fill="#ad5b3a" d="M 42.929688 55.332031 C 42.929688 55.007812 42.929688 54.699219 42.929688 54.390625 C 43.972656 54.632812 45.023438 54.492188 46.074219 54.503906 C 47.136719 54.519531 48.199219 54.503906 49.273438 54.503906 C 55.429688 54.503906 61.574219 54.503906 67.734375 54.503906 C 73.285156 54.503906 78.839844 54.503906 84.394531 54.503906 C 86.96875 54.503906 89.53125 54.503906 92.105469 54.492188 C 92.390625 54.492188 92.664062 54.453125 92.972656 54.425781 C 92.972656 54.6875 92.972656 54.996094 92.972656 55.253906 C 91.898438 55.097656 90.8125 55.1875 89.742188 55.175781 C 84.1875 55.164062 78.644531 55.175781 73.089844 55.175781 C 71.773438 55.175781 70.472656 55.152344 69.15625 55.152344 C 62.617188 55.152344 56.085938 55.164062 49.546875 55.175781 C 48.320312 55.175781 47.09375 55.152344 45.867188 55.152344 C 45.066406 55.152344 44.257812 55.164062 43.457031 55.1875 C 43.292969 55.1875 43.117188 55.28125 42.929688 55.332031 Z M 42.929688 55.332031 " fill-opacity="1" fill-rule="nonzero"/></g><g clip-path="url(#141674f5ce)"><path fill="#ad5b3a" d="M 41.441406 54.855469 C 41.804688 54.582031 41.96875 54.234375 41.804688 53.71875 C 42.140625 53.859375 42.4375 53.976562 42.765625 54.105469 C 42.765625 54.582031 42.765625 55.085938 42.765625 55.578125 C 42.460938 55.707031 42.152344 55.835938 41.824219 55.964844 C 41.945312 55.484375 41.824219 55.097656 41.441406 54.855469 Z M 41.441406 54.855469 " fill-opacity="1" fill-rule="nonzero"/></g><g clip-path="url(#78f24986fb)"><path fill="#ad5b3a" d="M 94.101562 53.71875 C 93.957031 54.234375 94.101562 54.582031 94.460938 54.839844 C 94.089844 55.085938 94 55.472656 94.023438 55.9375 C 93.773438 55.835938 93.53125 55.746094 93.300781 55.628906 C 93.222656 55.578125 93.136719 55.433594 93.125 55.332031 C 93.101562 54.929688 93.113281 54.53125 93.113281 54.117188 C 93.441406 53.988281 93.75 53.859375 94.101562 53.71875 Z M 94.101562 53.71875 " fill-opacity="1" fill-rule="nonzero"/></g><path fill="#ad5b3a" d="M 42.929688 34.402344 C 42.929688 34.082031 42.929688 33.773438 42.929688 33.460938 C 43.972656 33.707031 45.023438 33.566406 46.074219 33.578125 C 47.136719 33.589844 48.199219 33.578125 49.273438 33.578125 C 55.429688 33.578125 61.574219 33.578125 67.734375 33.578125 C 73.285156 33.578125 78.839844 33.578125 84.394531 33.578125 C 86.96875 33.578125 89.53125 33.578125 92.105469 33.566406 C 92.390625 33.566406 92.664062 33.527344 92.972656 33.5 C 92.972656 33.757812 92.972656 34.070312 92.972656 34.328125 C 91.898438 34.171875 90.8125 34.261719 89.742188 34.25 C 84.1875 34.238281 78.644531 34.25 73.089844 34.25 C 71.773438 34.25 70.472656 34.222656 69.15625 34.222656 C 62.617188 34.222656 56.085938 34.238281 49.546875 34.25 C 48.320312 34.25 47.09375 34.222656 45.867188 34.222656 C 45.066406 34.222656 44.257812 34.238281 43.457031 34.261719 C 43.292969 34.261719 43.117188 34.351562 42.929688 34.402344 Z M 42.929688 34.402344 " fill-opacity="1" fill-rule="nonzero"/><g clip-path="url(#c0c75af2e7)"><path fill="#ad5b3a" d="M 41.441406 33.925781 C 41.804688 33.65625 41.96875 33.308594 41.804688 32.789062 C 42.140625 32.933594 42.4375 33.050781 42.765625 33.179688 C 42.765625 33.65625 42.765625 34.160156 42.765625 34.648438 C 42.460938 34.777344 42.152344 34.90625 41.824219 35.035156 C 41.945312 34.558594 41.824219 34.171875 41.441406 33.925781 Z M 41.441406 33.925781 " fill-opacity="1" fill-rule="nonzero"/></g><g clip-path="url(#73095ad890)"><path fill="#ad5b3a" d="M 94.101562 32.789062 C 93.957031 33.308594 94.101562 33.65625 94.460938 33.914062 C 94.089844 34.160156 94 34.546875 94.023438 35.011719 C 93.773438 34.90625 93.53125 34.816406 93.300781 34.699219 C 93.222656 34.648438 93.136719 34.507812 93.125 34.402344 C 93.101562 34.003906 93.113281 33.605469 93.113281 33.191406 C 93.441406 33.0625 93.75 32.933594 94.101562 32.789062 Z M 94.101562 32.789062 " fill-opacity="1" fill-rule="nonzero"/></g><path fill="#ad5b3a" d="M 147.960938 34.402344 C 147.960938 34.082031 147.960938 33.773438 147.960938 33.460938 C 149 33.707031 150.050781 33.566406 151.105469 33.578125 C 152.167969 33.589844 153.230469 33.578125 154.300781 33.578125 C 160.457031 33.578125 166.605469 33.578125 172.761719 33.578125 C 178.316406 33.578125 183.867188 33.578125 189.421875 33.578125 C 191.996094 33.578125 194.5625 33.578125 197.136719 33.566406 C 197.421875 33.566406 197.695312 33.527344 198 33.5 C 198 33.757812 198 34.070312 198 34.328125 C 196.925781 34.171875 195.84375 34.261719 194.769531 34.25 C 189.214844 34.238281 183.671875 34.25 178.117188 34.25 C 176.804688 34.25 175.5 34.222656 174.183594 34.222656 C 167.644531 34.222656 161.117188 34.238281 154.578125 34.25 C 153.347656 34.25 152.121094 34.222656 150.894531 34.222656 C 150.097656 34.222656 149.285156 34.238281 148.484375 34.261719 C 148.320312 34.261719 148.144531 34.351562 147.960938 34.402344 Z M 147.960938 34.402344 " fill-opacity="1" fill-rule="nonzero"/><g clip-path="url(#b9104927be)"><path fill="#ad5b3a" d="M 146.46875 33.925781 C 146.832031 33.65625 146.996094 33.308594 146.832031 32.789062 C 147.171875 32.933594 147.464844 33.050781 147.796875 33.179688 C 147.796875 33.65625 147.796875 34.160156 147.796875 34.648438 C 147.488281 34.777344 147.183594 34.90625 146.851562 35.035156 C 146.972656 34.558594 146.851562 34.171875 146.46875 33.925781 Z M 146.46875 33.925781 " fill-opacity="1" fill-rule="nonzero"/></g><g clip-path="url(#55140d5b20)"><path fill="#ad5b3a" d="M 199.128906 32.789062 C 198.988281 33.308594 199.128906 33.65625 199.492188 33.914062 C 199.117188 34.160156 199.03125 34.546875 199.050781 35.011719 C 198.800781 34.90625 198.558594 34.816406 198.328125 34.699219 C 198.253906 34.648438 198.164062 34.507812 198.152344 34.402344 C 198.132812 34.003906 198.144531 33.605469 198.144531 33.191406 C 198.472656 33.0625 198.777344 32.933594 199.128906 32.789062 Z M 199.128906 32.789062 " fill-opacity="1" fill-rule="nonzero"/></g><g clip-path="url(#997c0eb937)"><path fill="#ad5b3a" d="M 147.960938 55.332031 C 147.960938 55.007812 147.960938 54.699219 147.960938 54.390625 C 149 54.632812 150.050781 54.492188 151.105469 54.503906 C 152.167969 54.519531 153.230469 54.503906 154.300781 54.503906 C 160.457031 54.503906 166.605469 54.503906 172.761719 54.503906 C 178.316406 54.503906 183.867188 54.503906 189.421875 54.503906 C 191.996094 54.503906 194.5625 54.503906 197.136719 54.492188 C 197.421875 54.492188 197.695312 54.453125 198 54.425781 C 198 54.6875 198 54.996094 198 55.253906 C 196.925781 55.097656 195.84375 55.1875 194.769531 55.175781 C 189.214844 55.164062 183.671875 55.175781 178.117188 55.175781 C 176.804688 55.175781 175.5 55.152344 174.183594 55.152344 C 167.644531 55.152344 161.117188 55.164062 154.578125 55.175781 C 153.347656 55.175781 152.121094 55.152344 150.894531 55.152344 C 150.097656 55.152344 149.285156 55.164062 148.484375 55.1875 C 148.320312 55.1875 148.144531 55.28125 147.960938 55.332031 Z M 147.960938 55.332031 " fill-opacity="1" fill-rule="nonzero"/></g><g clip-path="url(#fe159e59a4)"><path fill="#ad5b3a" d="M 146.46875 54.855469 C 146.832031 54.582031 146.996094 54.234375 146.832031 53.71875 C 147.171875 53.859375 147.464844 53.976562 147.796875 54.105469 C 147.796875 54.582031 147.796875 55.085938 147.796875 55.578125 C 147.488281 55.707031 147.183594 55.835938 146.851562 55.964844 C 146.972656 55.484375 146.851562 55.097656 146.46875 54.855469 Z M 146.46875 54.855469 " fill-opacity="1" fill-rule="nonzero"/></g><g clip-path="url(#d72edf2610)"><path fill="#ad5b3a" d="M 199.128906 53.71875 C 198.988281 54.234375 199.128906 54.582031 199.492188 54.839844 C 199.117188 55.085938 199.03125 55.472656 199.050781 55.9375 C 198.800781 55.835938 198.558594 55.746094 198.328125 55.628906 C 198.253906 55.578125 198.164062 55.433594 198.152344 55.332031 C 198.132812 54.929688 198.144531 54.53125 198.144531 54.117188 C 198.472656 53.988281 198.777344 53.859375 199.128906 53.71875 Z M 199.128906 53.71875 " fill-opacity="1" fill-rule="nonzero"/></g><g clip-path="url(#c04a38b1ab)"><path fill="#d66461" d="M 133.703125 37.617188 C 132.199219 30.050781 122.789062 29.921875 120.46875 36.996094 C 118.144531 29.921875 108.734375 30.050781 107.230469 37.617188 C 105.871094 44.480469 120.46875 55.308594 120.46875 55.308594 C 120.46875 55.308594 135.0625 44.480469 133.703125 37.617188 Z M 133.703125 37.617188 " fill-opacity="1" fill-rule="nonzero"/></g><g fill="#545454" fill-opacity="1"><g transform="translate(104.475531, 21.048036)"><g><path d="M 3.265625 -6.859375 C 3.296875 -6.859375 3.3125 -6.835938 3.3125 -6.796875 C 3.3125 -6.753906 3.296875 -6.734375 3.265625 -6.734375 C 3.078125 -6.734375 2.9375 -6.710938 2.84375 -6.671875 C 2.757812 -6.628906 2.703125 -6.550781 2.671875 -6.4375 C 2.640625 -6.332031 2.625 -6.171875 2.625 -5.953125 L 2.625 0.046875 C 2.625 0.867188 2.421875 1.507812 2.015625 1.96875 C 1.609375 2.425781 1.039062 2.65625 0.3125 2.65625 C 0.0390625 2.65625 -0.179688 2.597656 -0.359375 2.484375 C -0.535156 2.367188 -0.625 2.207031 -0.625 2 C -0.625 1.851562 -0.578125 1.722656 -0.484375 1.609375 C -0.390625 1.492188 -0.25 1.4375 -0.0625 1.4375 C 0.125 1.4375 0.265625 1.488281 0.359375 1.59375 C 0.460938 1.707031 0.554688 1.863281 0.640625 2.0625 C 0.679688 2.175781 0.722656 2.265625 0.765625 2.328125 C 0.804688 2.390625 0.863281 2.421875 0.9375 2.421875 C 1.09375 2.421875 1.207031 2.296875 1.28125 2.046875 C 1.351562 1.804688 1.390625 1.394531 1.390625 0.8125 L 1.390625 -5.96875 C 1.390625 -6.195312 1.363281 -6.359375 1.3125 -6.453125 C 1.257812 -6.554688 1.171875 -6.628906 1.046875 -6.671875 C 0.929688 -6.710938 0.738281 -6.734375 0.46875 -6.734375 C 0.445312 -6.734375 0.4375 -6.753906 0.4375 -6.796875 C 0.4375 -6.835938 0.445312 -6.859375 0.46875 -6.859375 L 1.140625 -6.859375 C 1.492188 -6.835938 1.773438 -6.828125 1.984375 -6.828125 C 2.191406 -6.828125 2.445312 -6.835938 2.75 -6.859375 Z M 3.265625 -6.859375 "/></g></g></g><g fill="#545454" fill-opacity="1"><g transform="translate(108.199482, 21.048036)"><g><path d="M 6.265625 -5.453125 C 6.265625 -5.847656 6.175781 -6.160156 6 -6.390625 C 5.820312 -6.617188 5.570312 -6.734375 5.25 -6.734375 C 5.238281 -6.734375 5.234375 -6.753906 5.234375 -6.796875 C 5.234375 -6.835938 5.238281 -6.859375 5.25 -6.859375 L 5.78125 -6.859375 C 6.050781 -6.835938 6.273438 -6.828125 6.453125 -6.828125 C 6.585938 -6.828125 6.785156 -6.835938 7.046875 -6.859375 L 7.5625 -6.859375 C 7.570312 -6.859375 7.578125 -6.835938 7.578125 -6.796875 C 7.578125 -6.753906 7.570312 -6.734375 7.5625 -6.734375 C 7.269531 -6.734375 7.039062 -6.617188 6.875 -6.390625 C 6.71875 -6.160156 6.640625 -5.847656 6.640625 -5.453125 L 6.640625 -2.40625 C 6.640625 -1.894531 6.523438 -1.441406 6.296875 -1.046875 C 6.078125 -0.660156 5.757812 -0.363281 5.34375 -0.15625 C 4.925781 0.0507812 4.445312 0.15625 3.90625 0.15625 C 3.363281 0.15625 2.882812 0.0507812 2.46875 -0.15625 C 2.050781 -0.363281 1.722656 -0.660156 1.484375 -1.046875 C 1.242188 -1.441406 1.125 -1.898438 1.125 -2.421875 L 1.125 -5.96875 C 1.125 -6.195312 1.101562 -6.359375 1.0625 -6.453125 C 1.03125 -6.554688 0.957031 -6.628906 0.84375 -6.671875 C 0.738281 -6.710938 0.570312 -6.734375 0.34375 -6.734375 C 0.320312 -6.734375 0.3125 -6.753906 0.3125 -6.796875 C 0.3125 -6.835938 0.320312 -6.859375 0.34375 -6.859375 L 0.9375 -6.859375 C 1.269531 -6.835938 1.535156 -6.828125 1.734375 -6.828125 C 1.953125 -6.828125 2.234375 -6.835938 2.578125 -6.859375 L 3.125 -6.859375 C 3.144531 -6.859375 3.15625 -6.835938 3.15625 -6.796875 C 3.15625 -6.753906 3.144531 -6.734375 3.125 -6.734375 C 2.90625 -6.734375 2.738281 -6.710938 2.625 -6.671875 C 2.519531 -6.628906 2.445312 -6.550781 2.40625 -6.4375 C 2.363281 -6.332031 2.34375 -6.171875 2.34375 -5.953125 L 2.34375 -2.8125 C 2.34375 -1.9375 2.515625 -1.289062 2.859375 -0.875 C 3.210938 -0.457031 3.703125 -0.25 4.328125 -0.25 C 4.929688 -0.25 5.40625 -0.429688 5.75 -0.796875 C 6.09375 -1.171875 6.265625 -1.703125 6.265625 -2.390625 Z M 6.265625 -5.453125 "/></g></g></g><g fill="#545454" fill-opacity="1"><g transform="translate(115.922001, 21.048036)"><g><path d="M 7.9375 -6.859375 C 7.957031 -6.859375 7.96875 -6.835938 7.96875 -6.796875 C 7.96875 -6.753906 7.957031 -6.734375 7.9375 -6.734375 C 7.644531 -6.734375 7.414062 -6.617188 7.25 -6.390625 C 7.082031 -6.160156 7 -5.847656 7 -5.453125 L 7 0.171875 C 7 0.191406 6.976562 0.203125 6.9375 0.203125 C 6.90625 0.210938 6.882812 0.210938 6.875 0.203125 L 1.71875 -5.671875 L 1.71875 -1.390625 C 1.71875 -1.003906 1.796875 -0.695312 1.953125 -0.46875 C 2.117188 -0.238281 2.347656 -0.125 2.640625 -0.125 C 2.648438 -0.125 2.65625 -0.101562 2.65625 -0.0625 C 2.65625 -0.0195312 2.648438 0 2.640625 0 C 2.429688 0 2.269531 -0.00390625 2.15625 -0.015625 L 0.890625 -0.015625 C 0.765625 -0.00390625 0.582031 0 0.34375 0 C 0.320312 0 0.3125 -0.0195312 0.3125 -0.0625 C 0.3125 -0.101562 0.320312 -0.125 0.34375 -0.125 C 0.664062 -0.125 0.921875 -0.238281 1.109375 -0.46875 C 1.296875 -0.695312 1.390625 -1.003906 1.390625 -1.390625 L 1.390625 -6.046875 C 1.148438 -6.304688 0.941406 -6.484375 0.765625 -6.578125 C 0.597656 -6.679688 0.421875 -6.734375 0.234375 -6.734375 C 0.222656 -6.734375 0.21875 -6.753906 0.21875 -6.796875 C 0.21875 -6.835938 0.222656 -6.859375 0.234375 -6.859375 L 0.703125 -6.859375 C 0.796875 -6.847656 0.9375 -6.84375 1.125 -6.84375 L 1.953125 -6.859375 C 2.054688 -6.859375 2.179688 -6.859375 2.328125 -6.859375 C 2.390625 -6.859375 2.429688 -6.84375 2.453125 -6.8125 C 2.484375 -6.789062 2.535156 -6.734375 2.609375 -6.640625 C 2.734375 -6.460938 2.820312 -6.347656 2.875 -6.296875 L 6.671875 -1.90625 L 6.671875 -5.453125 C 6.671875 -5.847656 6.585938 -6.160156 6.421875 -6.390625 C 6.265625 -6.617188 6.046875 -6.734375 5.765625 -6.734375 C 5.753906 -6.734375 5.75 -6.753906 5.75 -6.796875 C 5.75 -6.835938 5.753906 -6.859375 5.765625 -6.859375 L 6.234375 -6.859375 C 6.472656 -6.835938 6.671875 -6.828125 6.828125 -6.828125 C 6.972656 -6.828125 7.179688 -6.835938 7.453125 -6.859375 Z M 7.9375 -6.859375 "/></g></g></g><g fill="#545454" fill-opacity="1"><g transform="translate(123.996048, 21.048036)"><g><path d="M 2.5 -0.890625 C 2.5 -0.660156 2.515625 -0.492188 2.546875 -0.390625 C 2.585938 -0.285156 2.660156 -0.210938 2.765625 -0.171875 C 2.867188 -0.140625 3.035156 -0.125 3.265625 -0.125 C 3.296875 -0.125 3.3125 -0.101562 3.3125 -0.0625 C 3.3125 -0.0195312 3.296875 0 3.265625 0 C 3.023438 0 2.835938 -0.00390625 2.703125 -0.015625 L 1.046875 -0.015625 C 0.898438 -0.00390625 0.707031 0 0.46875 0 C 0.445312 0 0.4375 -0.0195312 0.4375 -0.0625 C 0.4375 -0.101562 0.445312 -0.125 0.46875 -0.125 C 0.695312 -0.125 0.863281 -0.140625 0.96875 -0.171875 C 1.082031 -0.210938 1.160156 -0.285156 1.203125 -0.390625 C 1.242188 -0.503906 1.265625 -0.671875 1.265625 -0.890625 L 1.265625 -5.96875 C 1.265625 -6.195312 1.242188 -6.359375 1.203125 -6.453125 C 1.160156 -6.554688 1.082031 -6.628906 0.96875 -6.671875 C 0.863281 -6.710938 0.695312 -6.734375 0.46875 -6.734375 C 0.445312 -6.734375 0.4375 -6.753906 0.4375 -6.796875 C 0.4375 -6.835938 0.445312 -6.859375 0.46875 -6.859375 L 1.046875 -6.859375 C 1.390625 -6.835938 1.664062 -6.828125 1.875 -6.828125 C 2.09375 -6.828125 2.375 -6.835938 2.71875 -6.859375 L 3.265625 -6.859375 C 3.296875 -6.859375 3.3125 -6.835938 3.3125 -6.796875 C 3.3125 -6.753906 3.296875 -6.734375 3.265625 -6.734375 C 3.046875 -6.734375 2.878906 -6.710938 2.765625 -6.671875 C 2.660156 -6.628906 2.585938 -6.550781 2.546875 -6.4375 C 2.515625 -6.332031 2.5 -6.171875 2.5 -5.953125 Z M 2.5 -0.890625 "/></g></g></g><g fill="#545454" fill-opacity="1"><g transform="translate(127.752948, 21.048036)"><g><path d="M 4.015625 0.125 C 3.335938 0.125 2.734375 -0.03125 2.203125 -0.34375 C 1.671875 -0.664062 1.257812 -1.097656 0.96875 -1.640625 C 0.675781 -2.179688 0.53125 -2.773438 0.53125 -3.421875 C 0.53125 -4.179688 0.722656 -4.828125 1.109375 -5.359375 C 1.492188 -5.898438 1.984375 -6.304688 2.578125 -6.578125 C 3.171875 -6.847656 3.78125 -6.984375 4.40625 -6.984375 C 5.101562 -6.984375 5.710938 -6.820312 6.234375 -6.5 C 6.765625 -6.175781 7.171875 -5.742188 7.453125 -5.203125 C 7.734375 -4.671875 7.875 -4.101562 7.875 -3.5 C 7.875 -2.832031 7.695312 -2.21875 7.34375 -1.65625 C 7 -1.101562 6.53125 -0.664062 5.9375 -0.34375 C 5.34375 -0.03125 4.703125 0.125 4.015625 0.125 Z M 4.375 -0.140625 C 4.789062 -0.140625 5.160156 -0.257812 5.484375 -0.5 C 5.804688 -0.738281 6.0625 -1.085938 6.25 -1.546875 C 6.4375 -2.003906 6.53125 -2.550781 6.53125 -3.1875 C 6.53125 -3.863281 6.425781 -4.460938 6.21875 -4.984375 C 6.007812 -5.515625 5.710938 -5.929688 5.328125 -6.234375 C 4.941406 -6.535156 4.488281 -6.6875 3.96875 -6.6875 C 3.300781 -6.6875 2.785156 -6.4375 2.421875 -5.9375 C 2.066406 -5.4375 1.890625 -4.734375 1.890625 -3.828125 C 1.890625 -3.117188 1.992188 -2.484375 2.203125 -1.921875 C 2.421875 -1.367188 2.71875 -0.929688 3.09375 -0.609375 C 3.476562 -0.296875 3.90625 -0.140625 4.375 -0.140625 Z M 4.375 -0.140625 "/></g></g></g><g fill="#545454" fill-opacity="1"><g transform="translate(109.681125, 69.52289)"><g><path d="M 0.890625 -0.8125 C 0.890625 -1.03125 1.144531 -1.300781 1.65625 -1.625 C 1.757812 -1.6875 1.925781 -1.785156 2.15625 -1.921875 C 2.945312 -2.378906 3.488281 -2.757812 3.78125 -3.0625 C 4.144531 -3.445312 4.328125 -3.847656 4.328125 -4.265625 C 4.328125 -4.929688 3.984375 -5.390625 3.296875 -5.640625 C 3.003906 -5.753906 2.671875 -5.8125 2.296875 -5.8125 C 1.617188 -5.8125 1.085938 -5.632812 0.703125 -5.28125 C 0.453125 -5.039062 0.328125 -4.757812 0.328125 -4.4375 C 0.328125 -4.132812 0.441406 -3.945312 0.671875 -3.875 C 0.722656 -3.851562 0.78125 -3.84375 0.84375 -3.84375 C 1.132812 -3.84375 1.3125 -3.992188 1.375 -4.296875 C 1.382812 -4.359375 1.398438 -4.46875 1.421875 -4.625 C 1.453125 -5 1.535156 -5.25 1.671875 -5.375 C 1.796875 -5.476562 1.972656 -5.53125 2.203125 -5.53125 C 2.796875 -5.53125 3.148438 -5.242188 3.265625 -4.671875 C 3.285156 -4.554688 3.296875 -4.429688 3.296875 -4.296875 C 3.296875 -3.617188 3 -3.046875 2.40625 -2.578125 C 2.34375 -2.515625 2.03125 -2.300781 1.46875 -1.9375 C 0.945312 -1.582031 0.613281 -1.238281 0.46875 -0.90625 C 0.375 -0.695312 0.328125 -0.472656 0.328125 -0.234375 L 0.328125 0 L 4.46875 0 L 4.484375 -1.84375 L 4.265625 -1.84375 L 4.09375 -1.28125 C 4.007812 -1.03125 3.867188 -0.882812 3.671875 -0.84375 C 3.585938 -0.820312 3.46875 -0.8125 3.3125 -0.8125 Z M 0.890625 -0.8125 "/></g></g></g><g fill="#545454" fill-opacity="1"><g transform="translate(114.755278, 69.52289)"><g><path d="M 2.890625 -5.8125 C 2.085938 -5.8125 1.460938 -5.488281 1.015625 -4.84375 C 0.648438 -4.320312 0.46875 -3.671875 0.46875 -2.890625 C 0.46875 -1.703125 0.8125 -0.847656 1.5 -0.328125 C 1.882812 -0.0351562 2.332031 0.109375 2.84375 0.109375 C 3.644531 0.109375 4.265625 -0.21875 4.703125 -0.875 C 5.066406 -1.40625 5.25 -2.066406 5.25 -2.859375 C 5.25 -4.109375 4.878906 -4.972656 4.140625 -5.453125 C 3.785156 -5.691406 3.367188 -5.8125 2.890625 -5.8125 Z M 2.875 -0.171875 C 2.269531 -0.171875 1.867188 -0.539062 1.671875 -1.28125 C 1.566406 -1.6875 1.515625 -2.210938 1.515625 -2.859375 C 1.515625 -4.359375 1.816406 -5.222656 2.421875 -5.453125 C 2.554688 -5.503906 2.703125 -5.53125 2.859375 -5.53125 C 3.429688 -5.53125 3.8125 -5.207031 4 -4.5625 C 4.125 -4.15625 4.1875 -3.597656 4.1875 -2.890625 C 4.1875 -1.359375 3.890625 -0.476562 3.296875 -0.25 C 3.171875 -0.195312 3.03125 -0.171875 2.875 -0.171875 Z M 2.875 -0.171875 "/></g></g></g><g fill="#545454" fill-opacity="1"><g transform="translate(120.462358, 69.52289)"><g><path d="M 0.890625 -0.8125 C 0.890625 -1.03125 1.144531 -1.300781 1.65625 -1.625 C 1.757812 -1.6875 1.925781 -1.785156 2.15625 -1.921875 C 2.945312 -2.378906 3.488281 -2.757812 3.78125 -3.0625 C 4.144531 -3.445312 4.328125 -3.847656 4.328125 -4.265625 C 4.328125 -4.929688 3.984375 -5.390625 3.296875 -5.640625 C 3.003906 -5.753906 2.671875 -5.8125 2.296875 -5.8125 C 1.617188 -5.8125 1.085938 -5.632812 0.703125 -5.28125 C 0.453125 -5.039062 0.328125 -4.757812 0.328125 -4.4375 C 0.328125 -4.132812 0.441406 -3.945312 0.671875 -3.875 C 0.722656 -3.851562 0.78125 -3.84375 0.84375 -3.84375 C 1.132812 -3.84375 1.3125 -3.992188 1.375 -4.296875 C 1.382812 -4.359375 1.398438 -4.46875 1.421875 -4.625 C 1.453125 -5 1.535156 -5.25 1.671875 -5.375 C 1.796875 -5.476562 1.972656 -5.53125 2.203125 -5.53125 C 2.796875 -5.53125 3.148438 -5.242188 3.265625 -4.671875 C 3.285156 -4.554688 3.296875 -4.429688 3.296875 -4.296875 C 3.296875 -3.617188 3 -3.046875 2.40625 -2.578125 C 2.34375 -2.515625 2.03125 -2.300781 1.46875 -1.9375 C 0.945312 -1.582031 0.613281 -1.238281 0.46875 -0.90625 C 0.375 -0.695312 0.328125 -0.472656 0.328125 -0.234375 L 0.328125 0 L 4.46875 0 L 4.484375 -1.84375 L 4.265625 -1.84375 L 4.09375 -1.28125 C 4.007812 -1.03125 3.867188 -0.882812 3.671875 -0.84375 C 3.585938 -0.820312 3.46875 -0.8125 3.3125 -0.8125 Z M 0.890625 -0.8125 "/></g></g></g><g fill="#545454" fill-opacity="1"><g transform="translate(125.536511, 69.52289)"><g><path d="M 4.671875 -5.484375 L 4.671875 -5.703125 L 0.625 -5.703125 L 0.59375 -3.890625 L 0.859375 -3.890625 L 1.046875 -4.46875 C 1.128906 -4.71875 1.289062 -4.863281 1.53125 -4.90625 C 1.613281 -4.90625 1.734375 -4.90625 1.890625 -4.90625 L 3.578125 -4.90625 L 1.65625 -2.6875 L 1.90625 -2.484375 C 2.164062 -2.597656 2.414062 -2.65625 2.65625 -2.65625 C 3.15625 -2.65625 3.515625 -2.40625 3.734375 -1.90625 C 3.835938 -1.65625 3.890625 -1.378906 3.890625 -1.078125 C 3.867188 0.0234375 3.34375 0.582031 2.3125 0.59375 C 1.925781 0.59375 1.6875 0.414062 1.59375 0.0625 C 1.582031 -0.0078125 1.566406 -0.128906 1.546875 -0.296875 C 1.503906 -0.640625 1.425781 -0.859375 1.3125 -0.953125 C 1.21875 -1.015625 1.097656 -1.046875 0.953125 -1.046875 C 0.679688 -1.046875 0.515625 -0.921875 0.453125 -0.671875 C 0.429688 -0.609375 0.421875 -0.550781 0.421875 -0.5 C 0.421875 0 0.707031 0.378906 1.28125 0.640625 C 1.625 0.785156 2.015625 0.859375 2.453125 0.859375 C 3.335938 0.859375 4.007812 0.5625 4.46875 -0.03125 C 4.738281 -0.394531 4.875 -0.789062 4.875 -1.21875 C 4.875 -1.800781 4.660156 -2.257812 4.234375 -2.59375 C 3.898438 -2.851562 3.488281 -2.984375 3 -2.984375 C 2.78125 -2.984375 2.539062 -2.953125 2.28125 -2.890625 Z M 4.671875 -5.484375 "/></g></g></g><g fill="#545454" fill-opacity="1"><g transform="translate(45.917575, 47.096872)"><g><path d="M 1.90625 -5.75 C 1.90625 -5.488281 1.972656 -5.253906 2.109375 -5.046875 C 2.242188 -4.847656 2.410156 -4.671875 2.609375 -4.515625 C 2.804688 -4.359375 3.078125 -4.171875 3.421875 -3.953125 C 3.785156 -3.722656 4.078125 -3.519531 4.296875 -3.34375 C 4.515625 -3.164062 4.695312 -2.945312 4.84375 -2.6875 C 5 -2.4375 5.078125 -2.148438 5.078125 -1.828125 C 5.078125 -1.441406 4.972656 -1.097656 4.765625 -0.796875 C 4.566406 -0.503906 4.285156 -0.273438 3.921875 -0.109375 C 3.566406 0.046875 3.164062 0.125 2.71875 0.125 C 2.382812 0.125 2.035156 0.0820312 1.671875 0 C 1.316406 -0.09375 1.078125 -0.195312 0.953125 -0.3125 C 0.921875 -0.332031 0.894531 -0.351562 0.875 -0.375 C 0.851562 -0.40625 0.84375 -0.453125 0.84375 -0.515625 L 0.8125 -2.265625 L 0.8125 -2.28125 C 0.8125 -2.300781 0.828125 -2.3125 0.859375 -2.3125 C 0.898438 -2.320312 0.925781 -2.3125 0.9375 -2.28125 C 1.15625 -1.832031 1.34375 -1.46875 1.5 -1.1875 C 1.664062 -0.914062 1.875 -0.671875 2.125 -0.453125 C 2.382812 -0.242188 2.675781 -0.140625 3 -0.140625 C 3.289062 -0.140625 3.53125 -0.21875 3.71875 -0.375 C 3.914062 -0.53125 4.015625 -0.800781 4.015625 -1.1875 C 4.015625 -1.507812 3.941406 -1.789062 3.796875 -2.03125 C 3.648438 -2.269531 3.472656 -2.472656 3.265625 -2.640625 C 3.066406 -2.816406 2.785156 -3.019531 2.421875 -3.25 C 2.078125 -3.476562 1.804688 -3.671875 1.609375 -3.828125 C 1.410156 -3.992188 1.242188 -4.1875 1.109375 -4.40625 C 0.972656 -4.632812 0.90625 -4.90625 0.90625 -5.21875 C 0.90625 -5.601562 1.015625 -5.929688 1.234375 -6.203125 C 1.460938 -6.472656 1.75 -6.671875 2.09375 -6.796875 C 2.445312 -6.921875 2.816406 -6.984375 3.203125 -6.984375 C 3.460938 -6.984375 3.722656 -6.957031 3.984375 -6.90625 C 4.242188 -6.863281 4.457031 -6.8125 4.625 -6.75 C 4.6875 -6.71875 4.726562 -6.6875 4.75 -6.65625 C 4.78125 -6.625 4.796875 -6.582031 4.796875 -6.53125 L 4.796875 -4.90625 C 4.796875 -4.882812 4.773438 -4.867188 4.734375 -4.859375 C 4.691406 -4.847656 4.671875 -4.851562 4.671875 -4.875 L 4.578125 -5.078125 C 4.398438 -5.546875 4.1875 -5.941406 3.9375 -6.265625 C 3.6875 -6.585938 3.34375 -6.75 2.90625 -6.75 C 2.613281 -6.75 2.375 -6.660156 2.1875 -6.484375 C 2 -6.316406 1.90625 -6.070312 1.90625 -5.75 Z M 1.90625 -5.75 "/></g></g></g><g fill="#545454" fill-opacity="1"><g transform="translate(51.574906, 47.096872)"><g><path d="M 2.8125 -7.453125 C 2.78125 -7.453125 2.757812 -7.46875 2.75 -7.5 C 2.738281 -7.53125 2.742188 -7.550781 2.765625 -7.5625 C 2.992188 -7.726562 3.3125 -7.988281 3.71875 -8.34375 C 3.8125 -8.425781 3.957031 -8.546875 4.15625 -8.703125 C 4.1875 -8.734375 4.3125 -8.71875 4.53125 -8.65625 C 4.757812 -8.59375 4.957031 -8.519531 5.125 -8.4375 C 5.300781 -8.363281 5.347656 -8.316406 5.265625 -8.296875 C 4.398438 -8.078125 3.585938 -7.796875 2.828125 -7.453125 Z M 7.875 -0.125 C 7.914062 -0.125 7.9375 -0.101562 7.9375 -0.0625 C 7.9375 -0.0195312 7.914062 0 7.875 0 C 7.726562 0 7.5 -0.00390625 7.1875 -0.015625 C 6.875 -0.0351562 6.644531 -0.046875 6.5 -0.046875 C 6.320312 -0.046875 6.097656 -0.0351562 5.828125 -0.015625 C 5.578125 -0.00390625 5.378906 0 5.234375 0 C 5.210938 0 5.203125 -0.0195312 5.203125 -0.0625 C 5.203125 -0.101562 5.210938 -0.125 5.234375 -0.125 C 5.429688 -0.125 5.570312 -0.144531 5.65625 -0.1875 C 5.738281 -0.226562 5.78125 -0.300781 5.78125 -0.40625 C 5.78125 -0.53125 5.707031 -0.738281 5.5625 -1.03125 L 4.8125 -2.515625 L 2.109375 -2.515625 L 1.6875 -1.5625 C 1.582031 -1.34375 1.53125 -1.144531 1.53125 -0.96875 C 1.53125 -0.707031 1.625 -0.5 1.8125 -0.34375 C 2 -0.195312 2.253906 -0.125 2.578125 -0.125 C 2.609375 -0.125 2.625 -0.101562 2.625 -0.0625 C 2.625 -0.0195312 2.609375 0 2.578125 0 C 2.441406 0 2.25 -0.00390625 2 -0.015625 C 1.71875 -0.0351562 1.476562 -0.046875 1.28125 -0.046875 C 1.082031 -0.046875 0.84375 -0.0351562 0.5625 -0.015625 C 0.3125 -0.00390625 0.109375 0 -0.046875 0 C -0.078125 0 -0.09375 -0.0195312 -0.09375 -0.0625 C -0.09375 -0.101562 -0.078125 -0.125 -0.046875 -0.125 C 0.160156 -0.125 0.332031 -0.164062 0.46875 -0.25 C 0.613281 -0.34375 0.753906 -0.492188 0.890625 -0.703125 C 1.023438 -0.921875 1.191406 -1.242188 1.390625 -1.671875 L 3.765625 -6.90625 C 3.785156 -6.925781 3.816406 -6.9375 3.859375 -6.9375 C 3.921875 -6.9375 3.957031 -6.925781 3.96875 -6.90625 L 6.71875 -1.5 C 6.96875 -0.976562 7.175781 -0.617188 7.34375 -0.421875 C 7.507812 -0.222656 7.6875 -0.125 7.875 -0.125 Z M 2.25 -2.828125 L 4.640625 -2.828125 L 3.390625 -5.328125 Z M 2.25 -2.828125 "/></g></g></g><g fill="#545454" fill-opacity="1"><g transform="translate(59.440235, 47.096872)"><g><path d="M 3.953125 -3.859375 C 4.566406 -3.785156 5.054688 -3.578125 5.421875 -3.234375 C 5.785156 -2.898438 5.96875 -2.484375 5.96875 -1.984375 C 5.96875 -1.609375 5.859375 -1.265625 5.640625 -0.953125 C 5.421875 -0.648438 5.113281 -0.40625 4.71875 -0.21875 C 4.332031 -0.0390625 3.898438 0.046875 3.421875 0.046875 C 3.222656 0.046875 2.988281 0.0351562 2.71875 0.015625 C 2.625 0.00390625 2.5 0 2.34375 0 C 2.195312 -0.0078125 2.03125 -0.015625 1.84375 -0.015625 L 1.046875 -0.015625 C 0.898438 -0.00390625 0.703125 0 0.453125 0 C 0.429688 0 0.421875 -0.0195312 0.421875 -0.0625 C 0.421875 -0.101562 0.429688 -0.125 0.453125 -0.125 C 0.660156 -0.125 0.816406 -0.144531 0.921875 -0.1875 C 1.035156 -0.226562 1.113281 -0.300781 1.15625 -0.40625 C 1.207031 -0.519531 1.234375 -0.679688 1.234375 -0.890625 L 1.234375 -5.96875 C 1.234375 -6.28125 1.179688 -6.484375 1.078125 -6.578125 C 0.984375 -6.679688 0.78125 -6.734375 0.46875 -6.734375 C 0.445312 -6.734375 0.4375 -6.753906 0.4375 -6.796875 C 0.4375 -6.835938 0.445312 -6.859375 0.46875 -6.859375 L 1.046875 -6.859375 C 1.378906 -6.835938 1.644531 -6.828125 1.84375 -6.828125 C 2.050781 -6.828125 2.265625 -6.835938 2.484375 -6.859375 C 2.554688 -6.867188 2.664062 -6.875 2.8125 -6.875 C 2.957031 -6.882812 3.085938 -6.890625 3.203125 -6.890625 C 3.867188 -6.890625 4.382812 -6.769531 4.75 -6.53125 C 5.113281 -6.289062 5.296875 -5.941406 5.296875 -5.484375 C 5.296875 -5.128906 5.179688 -4.804688 4.953125 -4.515625 C 4.722656 -4.234375 4.390625 -4.015625 3.953125 -3.859375 Z M 3.03125 -6.65625 C 2.820312 -6.65625 2.675781 -6.601562 2.59375 -6.5 C 2.507812 -6.40625 2.46875 -6.222656 2.46875 -5.953125 L 2.46875 -3.859375 L 2.90625 -3.859375 C 3.289062 -3.859375 3.582031 -4 3.78125 -4.28125 C 3.988281 -4.570312 4.09375 -4.9375 4.09375 -5.375 C 4.09375 -5.800781 4 -6.117188 3.8125 -6.328125 C 3.632812 -6.546875 3.375 -6.65625 3.03125 -6.65625 Z M 3.234375 -0.234375 C 4.191406 -0.234375 4.671875 -0.726562 4.671875 -1.71875 C 4.671875 -2.289062 4.535156 -2.738281 4.265625 -3.0625 C 3.992188 -3.394531 3.585938 -3.5625 3.046875 -3.5625 C 2.828125 -3.5625 2.632812 -3.550781 2.46875 -3.53125 L 2.46875 -0.890625 C 2.46875 -0.648438 2.515625 -0.476562 2.609375 -0.375 C 2.703125 -0.28125 2.910156 -0.234375 3.234375 -0.234375 Z M 3.234375 -0.234375 "/></g></g></g><g fill="#545454" fill-opacity="1"><g transform="translate(65.976371, 47.096872)"><g><path d="M 7.875 -0.125 C 7.914062 -0.125 7.9375 -0.101562 7.9375 -0.0625 C 7.9375 -0.0195312 7.914062 0 7.875 0 C 7.726562 0 7.5 -0.00390625 7.1875 -0.015625 C 6.875 -0.0351562 6.644531 -0.046875 6.5 -0.046875 C 6.320312 -0.046875 6.097656 -0.0351562 5.828125 -0.015625 C 5.578125 -0.00390625 5.378906 0 5.234375 0 C 5.210938 0 5.203125 -0.0195312 5.203125 -0.0625 C 5.203125 -0.101562 5.210938 -0.125 5.234375 -0.125 C 5.429688 -0.125 5.570312 -0.144531 5.65625 -0.1875 C 5.738281 -0.226562 5.78125 -0.300781 5.78125 -0.40625 C 5.78125 -0.53125 5.707031 -0.738281 5.5625 -1.03125 L 4.8125 -2.515625 L 2.109375 -2.515625 L 1.6875 -1.5625 C 1.582031 -1.34375 1.53125 -1.144531 1.53125 -0.96875 C 1.53125 -0.707031 1.625 -0.5 1.8125 -0.34375 C 2 -0.195312 2.253906 -0.125 2.578125 -0.125 C 2.609375 -0.125 2.625 -0.101562 2.625 -0.0625 C 2.625 -0.0195312 2.609375 0 2.578125 0 C 2.441406 0 2.25 -0.00390625 2 -0.015625 C 1.71875 -0.0351562 1.476562 -0.046875 1.28125 -0.046875 C 1.082031 -0.046875 0.84375 -0.0351562 0.5625 -0.015625 C 0.3125 -0.00390625 0.109375 0 -0.046875 0 C -0.078125 0 -0.09375 -0.0195312 -0.09375 -0.0625 C -0.09375 -0.101562 -0.078125 -0.125 -0.046875 -0.125 C 0.160156 -0.125 0.332031 -0.164062 0.46875 -0.25 C 0.613281 -0.34375 0.753906 -0.492188 0.890625 -0.703125 C 1.023438 -0.921875 1.191406 -1.242188 1.390625 -1.671875 L 3.765625 -6.90625 C 3.785156 -6.925781 3.816406 -6.9375 3.859375 -6.9375 C 3.921875 -6.9375 3.957031 -6.925781 3.96875 -6.90625 L 6.71875 -1.5 C 6.96875 -0.976562 7.175781 -0.617188 7.34375 -0.421875 C 7.507812 -0.222656 7.6875 -0.125 7.875 -0.125 Z M 2.25 -2.828125 L 4.640625 -2.828125 L 3.390625 -5.328125 Z M 2.25 -2.828125 "/></g></g></g><g fill="#545454" fill-opacity="1"><g transform="translate(73.8417, 47.096872)"><g><path d="M 3.578125 0.046875 C 3.347656 0.046875 3.070312 0.0351562 2.75 0.015625 C 2.632812 0.00390625 2.488281 0 2.3125 0 C 2.132812 -0.0078125 1.941406 -0.015625 1.734375 -0.015625 L 0.921875 -0.015625 C 0.773438 -0.00390625 0.578125 0 0.328125 0 C 0.316406 0 0.3125 -0.0195312 0.3125 -0.0625 C 0.3125 -0.101562 0.316406 -0.125 0.328125 -0.125 C 0.566406 -0.125 0.738281 -0.140625 0.84375 -0.171875 C 0.957031 -0.210938 1.03125 -0.285156 1.0625 -0.390625 C 1.101562 -0.503906 1.125 -0.671875 1.125 -0.890625 L 1.125 -5.96875 C 1.125 -6.195312 1.101562 -6.359375 1.0625 -6.453125 C 1.03125 -6.554688 0.957031 -6.628906 0.84375 -6.671875 C 0.738281 -6.710938 0.570312 -6.734375 0.34375 -6.734375 C 0.320312 -6.734375 0.3125 -6.753906 0.3125 -6.796875 C 0.3125 -6.835938 0.320312 -6.859375 0.34375 -6.859375 L 0.9375 -6.859375 C 1.269531 -6.835938 1.535156 -6.828125 1.734375 -6.828125 C 2.035156 -6.828125 2.34375 -6.835938 2.65625 -6.859375 C 3.039062 -6.878906 3.296875 -6.890625 3.421875 -6.890625 C 4.160156 -6.890625 4.816406 -6.742188 5.390625 -6.453125 C 5.972656 -6.160156 6.421875 -5.757812 6.734375 -5.25 C 7.046875 -4.75 7.203125 -4.179688 7.203125 -3.546875 C 7.203125 -2.835938 7.039062 -2.207031 6.71875 -1.65625 C 6.394531 -1.113281 5.953125 -0.691406 5.390625 -0.390625 C 4.835938 -0.0976562 4.234375 0.046875 3.578125 0.046875 Z M 3.46875 -0.203125 C 3.9375 -0.203125 4.347656 -0.320312 4.703125 -0.5625 C 5.066406 -0.800781 5.347656 -1.15625 5.546875 -1.625 C 5.753906 -2.09375 5.859375 -2.65625 5.859375 -3.3125 C 5.859375 -3.925781 5.757812 -4.488281 5.5625 -5 C 5.375 -5.507812 5.101562 -5.910156 4.75 -6.203125 C 4.40625 -6.492188 4 -6.640625 3.53125 -6.640625 C 3.082031 -6.640625 2.769531 -6.59375 2.59375 -6.5 C 2.425781 -6.414062 2.34375 -6.234375 2.34375 -5.953125 L 2.34375 -1.015625 C 2.34375 -0.722656 2.421875 -0.515625 2.578125 -0.390625 C 2.734375 -0.265625 3.03125 -0.203125 3.46875 -0.203125 Z M 3.46875 -0.203125 "/></g></g></g><g fill="#545454" fill-opacity="1"><g transform="translate(81.5862, 47.096872)"><g><path d="M 4.015625 0.125 C 3.335938 0.125 2.734375 -0.03125 2.203125 -0.34375 C 1.671875 -0.664062 1.257812 -1.097656 0.96875 -1.640625 C 0.675781 -2.179688 0.53125 -2.773438 0.53125 -3.421875 C 0.53125 -4.179688 0.722656 -4.828125 1.109375 -5.359375 C 1.492188 -5.898438 1.984375 -6.304688 2.578125 -6.578125 C 3.171875 -6.847656 3.78125 -6.984375 4.40625 -6.984375 C 5.101562 -6.984375 5.710938 -6.820312 6.234375 -6.5 C 6.765625 -6.175781 7.171875 -5.742188 7.453125 -5.203125 C 7.734375 -4.671875 7.875 -4.101562 7.875 -3.5 C 7.875 -2.832031 7.695312 -2.21875 7.34375 -1.65625 C 7 -1.101562 6.53125 -0.664062 5.9375 -0.34375 C 5.34375 -0.03125 4.703125 0.125 4.015625 0.125 Z M 4.375 -0.140625 C 4.789062 -0.140625 5.160156 -0.257812 5.484375 -0.5 C 5.804688 -0.738281 6.0625 -1.085938 6.25 -1.546875 C 6.4375 -2.003906 6.53125 -2.550781 6.53125 -3.1875 C 6.53125 -3.863281 6.425781 -4.460938 6.21875 -4.984375 C 6.007812 -5.515625 5.710938 -5.929688 5.328125 -6.234375 C 4.941406 -6.535156 4.488281 -6.6875 3.96875 -6.6875 C 3.300781 -6.6875 2.785156 -6.4375 2.421875 -5.9375 C 2.066406 -5.4375 1.890625 -4.734375 1.890625 -3.828125 C 1.890625 -3.117188 1.992188 -2.484375 2.203125 -1.921875 C 2.421875 -1.367188 2.71875 -0.929688 3.09375 -0.609375 C 3.476562 -0.296875 3.90625 -0.140625 4.375 -0.140625 Z M 4.375 -0.140625 "/></g></g></g><g fill="#545454" fill-opacity="1"><g transform="translate(153.25324, 46.459915)"><g><path d="M 2.375 -5.6875 L 0.21875 -4.265625 L 0.40625 -3.953125 L 2.078125 -5.015625 L 2.078125 -0.375 L 0.609375 -0.28125 L 0.609375 0 L 4.328125 0 C 4.328125 -0.15625 4.257812 -0.25 4.125 -0.28125 C 4.101562 -0.289062 4.078125 -0.296875 4.046875 -0.296875 L 2.9375 -0.375 L 2.9375 -5.6875 Z M 2.375 -5.6875 "/></g></g></g><g fill="#545454" fill-opacity="1"><g transform="translate(157.737375, 46.459915)"><g><path d="M 0.859375 -0.75 C 0.859375 -0.957031 1.113281 -1.226562 1.625 -1.5625 C 1.71875 -1.613281 1.863281 -1.703125 2.0625 -1.828125 C 2.863281 -2.304688 3.414062 -2.707031 3.71875 -3.03125 C 4.082031 -3.425781 4.265625 -3.835938 4.265625 -4.265625 C 4.265625 -4.921875 3.929688 -5.375 3.265625 -5.625 C 2.972656 -5.738281 2.644531 -5.796875 2.28125 -5.796875 C 1.613281 -5.796875 1.09375 -5.617188 0.71875 -5.265625 C 0.457031 -5.023438 0.328125 -4.738281 0.328125 -4.40625 C 0.328125 -4.113281 0.4375 -3.929688 0.65625 -3.859375 C 0.707031 -3.847656 0.753906 -3.84375 0.796875 -3.84375 C 1.078125 -3.84375 1.25 -3.984375 1.3125 -4.265625 C 1.320312 -4.335938 1.335938 -4.445312 1.359375 -4.59375 C 1.398438 -4.976562 1.488281 -5.234375 1.625 -5.359375 C 1.757812 -5.460938 1.941406 -5.515625 2.171875 -5.515625 C 2.804688 -5.515625 3.1875 -5.222656 3.3125 -4.640625 C 3.332031 -4.523438 3.34375 -4.398438 3.34375 -4.265625 C 3.34375 -3.597656 3.039062 -3.023438 2.4375 -2.546875 C 2.375 -2.492188 2.050781 -2.269531 1.46875 -1.875 C 0.925781 -1.507812 0.582031 -1.15625 0.4375 -0.8125 C 0.363281 -0.625 0.328125 -0.425781 0.328125 -0.21875 L 0.328125 0 L 4.40625 0 L 4.4375 -1.796875 L 4.21875 -1.796875 L 4.0625 -1.21875 C 3.976562 -0.96875 3.835938 -0.816406 3.640625 -0.765625 C 3.546875 -0.753906 3.425781 -0.75 3.28125 -0.75 Z M 0.859375 -0.75 "/></g></g></g><g fill="#545454" fill-opacity="1"><g transform="translate(162.75789, 46.459915)"><g><path d="M 1.640625 -3.59375 C 1.640625 -3.820312 1.535156 -3.984375 1.328125 -4.078125 C 1.253906 -4.109375 1.179688 -4.125 1.109375 -4.125 C 0.878906 -4.125 0.722656 -4.019531 0.640625 -3.8125 C 0.609375 -3.738281 0.59375 -3.664062 0.59375 -3.59375 C 0.59375 -3.363281 0.695312 -3.203125 0.90625 -3.109375 C 0.976562 -3.078125 1.046875 -3.0625 1.109375 -3.0625 C 1.335938 -3.0625 1.5 -3.164062 1.59375 -3.375 C 1.625 -3.445312 1.640625 -3.519531 1.640625 -3.59375 Z M 1.640625 -1.078125 C 1.640625 -1.304688 1.535156 -1.46875 1.328125 -1.5625 C 1.253906 -1.59375 1.179688 -1.609375 1.109375 -1.609375 C 0.878906 -1.609375 0.722656 -1.503906 0.640625 -1.296875 C 0.609375 -1.222656 0.59375 -1.148438 0.59375 -1.078125 C 0.59375 -0.847656 0.695312 -0.6875 0.90625 -0.59375 C 0.976562 -0.570312 1.046875 -0.5625 1.109375 -0.5625 C 1.335938 -0.5625 1.5 -0.664062 1.59375 -0.875 C 1.625 -0.9375 1.640625 -1.003906 1.640625 -1.078125 Z M 1.640625 -1.078125 "/></g></g></g><g fill="#545454" fill-opacity="1"><g transform="translate(164.989229, 46.459915)"><g><path d="M 4.578125 -5.46875 L 4.578125 -5.6875 L 0.59375 -5.6875 L 0.5625 -3.921875 L 0.8125 -3.921875 L 1.015625 -4.515625 C 1.085938 -4.753906 1.234375 -4.890625 1.453125 -4.921875 C 1.503906 -4.929688 1.5625 -4.9375 1.625 -4.9375 L 3.546875 -4.9375 L 1.59375 -2.6875 L 1.828125 -2.5 C 2.085938 -2.601562 2.34375 -2.65625 2.59375 -2.65625 C 3.09375 -2.65625 3.453125 -2.414062 3.671875 -1.9375 C 3.796875 -1.675781 3.859375 -1.378906 3.859375 -1.046875 C 3.859375 -0.0351562 3.398438 0.503906 2.484375 0.578125 C 2.410156 0.585938 2.335938 0.59375 2.265625 0.59375 C 1.878906 0.59375 1.644531 0.414062 1.5625 0.0625 C 1.53125 -0.0078125 1.507812 -0.117188 1.5 -0.265625 C 1.457031 -0.609375 1.375 -0.828125 1.25 -0.921875 C 1.164062 -0.984375 1.054688 -1.015625 0.921875 -1.015625 C 0.660156 -1.015625 0.503906 -0.890625 0.453125 -0.640625 C 0.429688 -0.585938 0.421875 -0.535156 0.421875 -0.484375 C 0.421875 -0.00390625 0.691406 0.363281 1.234375 0.625 C 1.578125 0.78125 1.96875 0.859375 2.40625 0.859375 C 3.257812 0.859375 3.910156 0.566406 4.359375 -0.015625 C 4.628906 -0.378906 4.765625 -0.773438 4.765625 -1.203125 C 4.765625 -1.765625 4.5625 -2.21875 4.15625 -2.5625 C 3.8125 -2.84375 3.398438 -2.984375 2.921875 -2.984375 C 2.691406 -2.984375 2.453125 -2.953125 2.203125 -2.890625 Z M 4.578125 -5.46875 "/></g></g></g><g fill="#545454" fill-opacity="1"><g transform="translate(170.331572, 46.459915)"><g><path d="M 2.84375 -5.796875 C 2.070312 -5.796875 1.46875 -5.484375 1.03125 -4.859375 C 0.664062 -4.335938 0.484375 -3.679688 0.484375 -2.890625 C 0.484375 -1.679688 0.828125 -0.816406 1.515625 -0.296875 C 1.890625 -0.0234375 2.316406 0.109375 2.796875 0.109375 C 3.566406 0.109375 4.171875 -0.210938 4.609375 -0.859375 C 4.960938 -1.390625 5.140625 -2.054688 5.140625 -2.859375 C 5.140625 -4.128906 4.765625 -5 4.015625 -5.46875 C 3.671875 -5.6875 3.28125 -5.796875 2.84375 -5.796875 Z M 2.828125 -0.171875 C 2.179688 -0.171875 1.765625 -0.5625 1.578125 -1.34375 C 1.472656 -1.738281 1.421875 -2.242188 1.421875 -2.859375 C 1.421875 -4.335938 1.726562 -5.191406 2.34375 -5.421875 C 2.488281 -5.484375 2.648438 -5.515625 2.828125 -5.515625 C 3.390625 -5.515625 3.769531 -5.234375 3.96875 -4.671875 C 4.113281 -4.253906 4.1875 -3.660156 4.1875 -2.890625 C 4.1875 -1.285156 3.84375 -0.394531 3.15625 -0.21875 C 3.050781 -0.1875 2.941406 -0.171875 2.828125 -0.171875 Z M 2.828125 -0.171875 "/></g></g></g><g fill="#545454" fill-opacity="1"><g transform="translate(175.942104, 46.459915)"><g/></g></g><g fill="#545454" fill-opacity="1"><g transform="translate(178.022319, 46.459915)"><g><path d="M 3.34375 -6.15625 C 3.988281 -6.15625 4.394531 -5.847656 4.5625 -5.234375 C 4.601562 -5.066406 4.625 -4.882812 4.625 -4.6875 C 4.625 -3.757812 4.21875 -3.253906 3.40625 -3.171875 C 3.332031 -3.160156 3.257812 -3.15625 3.1875 -3.15625 L 2.28125 -3.15625 L 2.28125 -6.15625 Z M 3.359375 0 C 3.359375 -0.15625 3.300781 -0.242188 3.1875 -0.265625 C 3.144531 -0.273438 3.109375 -0.28125 3.078125 -0.28125 L 2.28125 -0.28125 L 2.28125 -2.84375 L 3.21875 -2.84375 C 4.382812 -2.84375 5.15625 -3.175781 5.53125 -3.84375 C 5.675781 -4.101562 5.75 -4.394531 5.75 -4.71875 C 5.75 -5.414062 5.441406 -5.910156 4.828125 -6.203125 C 4.492188 -6.359375 4.097656 -6.4375 3.640625 -6.4375 L 0.390625 -6.4375 L 0.390625 -6.15625 L 1.25 -6.15625 L 1.25 -0.28125 L 0.390625 -0.28125 L 0.390625 0 Z M 3.359375 0 "/></g></g></g><g fill="#545454" fill-opacity="1"><g transform="translate(184.051228, 46.459915)"><g><path d="M 8.40625 -6.4375 L 6.5625 -6.4375 L 4.328125 -1.3125 L 1.890625 -6.4375 L 0.28125 -6.4375 L 0.28125 -6.15625 L 1.140625 -6.15625 L 1.140625 -0.28125 L 0.28125 -0.28125 L 0.28125 0 L 2.421875 0 C 2.421875 -0.15625 2.363281 -0.242188 2.25 -0.265625 C 2.21875 -0.273438 2.179688 -0.28125 2.140625 -0.28125 L 1.5625 -0.28125 L 1.5625 -4.78125 L 3.90625 0.0625 L 4.125 0.0625 L 6.5625 -5.4375 L 6.5625 -0.28125 L 5.703125 -0.28125 L 5.703125 0 L 8.40625 0 C 8.40625 -0.15625 8.347656 -0.242188 8.234375 -0.265625 C 8.191406 -0.273438 8.15625 -0.28125 8.125 -0.28125 L 7.546875 -0.28125 L 7.546875 -6.15625 L 8.40625 -6.15625 Z M 8.40625 -6.4375 "/></g></g></g><g fill="#ffffff" fill-opacity="1"><g transform="translate(115.208775, 46.459915)"><g><path d="M 2.390625 -5.703125 L 0.21875 -4.28125 L 0.40625 -3.96875 L 2.0625 -5.015625 L 2.0625 -0.375 L 0.609375 -0.28125 L 0.609375 0 L 4.375 0 C 4.375 -0.15625 4.304688 -0.25 4.171875 -0.28125 C 4.140625 -0.289062 4.113281 -0.296875 4.09375 -0.296875 L 3.03125 -0.375 L 3.03125 -5.703125 Z M 2.390625 -5.703125 "/></g></g></g><g fill="#ffffff" fill-opacity="1"><g transform="translate(119.746548, 46.459915)"><g><path d="M 2.890625 -5.8125 C 2.085938 -5.8125 1.460938 -5.488281 1.015625 -4.84375 C 0.648438 -4.320312 0.46875 -3.671875 0.46875 -2.890625 C 0.46875 -1.703125 0.8125 -0.847656 1.5 -0.328125 C 1.882812 -0.0351562 2.332031 0.109375 2.84375 0.109375 C 3.644531 0.109375 4.265625 -0.21875 4.703125 -0.875 C 5.066406 -1.40625 5.25 -2.066406 5.25 -2.859375 C 5.25 -4.109375 4.878906 -4.972656 4.140625 -5.453125 C 3.785156 -5.691406 3.367188 -5.8125 2.890625 -5.8125 Z M 2.875 -0.171875 C 2.269531 -0.171875 1.867188 -0.539062 1.671875 -1.28125 C 1.566406 -1.6875 1.515625 -2.210938 1.515625 -2.859375 C 1.515625 -4.359375 1.816406 -5.222656 2.421875 -5.453125 C 2.554688 -5.503906 2.703125 -5.53125 2.859375 -5.53125 C 3.429688 -5.53125 3.8125 -5.207031 4 -4.5625 C 4.125 -4.15625 4.1875 -3.597656 4.1875 -2.890625 C 4.1875 -1.359375 3.890625 -0.476562 3.296875 -0.25 C 3.171875 -0.195312 3.03125 -0.171875 2.875 -0.171875 Z M 2.875 -0.171875 "/></g></g></g></svg>